HIERARCHY
ROOT Hips
{
	OFFSET 0.00000 0.00000 0.00000
	CHANNELS 6 Xposition Yposition Zposition Zrotation Yrotation Xrotation 
	JOINT LHipJoint
	{
		OFFSET 0 0 0
		CHANNELS 3 Zrotation Yrotation Xrotation
		JOINT LeftUpLeg
		{
			OFFSET 1.62964 -1.40469 0.78906
			CHANNELS 3 Zrotation Yrotation Xrotation
			JOINT LeftLeg
			{
				OFFSET 2.29640 -6.30932 0.00000
				CHANNELS 3 Zrotation Yrotation Xrotation
				JOINT LeftFoot
				{
					OFFSET 2.29451 -6.30412 0.00000
					CHANNELS 3 Zrotation Yrotation Xrotation
					JOINT LeftToeBase
					{
						OFFSET 0.03611 -0.09921 1.56387
						CHANNELS 3 Zrotation Yrotation Xrotation
						End Site
						{
							OFFSET 0.00000 -0.00000 0.80291
						}
					}
				}
			}
		}
	}
	JOINT RHipJoint
	{
		OFFSET 0 0 0
		CHANNELS 3 Zrotation Yrotation Xrotation
		JOINT RightUpLeg
		{
			OFFSET -1.73712 -1.40469 0.78906
			CHANNELS 3 Zrotation Yrotation Xrotation
			JOINT RightLeg
			{
				OFFSET -2.28137 -6.26801 0.00000
				CHANNELS 3 Zrotation Yrotation Xrotation
				JOINT RightFoot
				{
					OFFSET -2.28681 -6.28298 0.00000
					CHANNELS 3 Zrotation Yrotation Xrotation
					JOINT RightToeBase
					{
						OFFSET -0.15927 -0.43759 1.61103
						CHANNELS 3 Zrotation Yrotation Xrotation
						End Site
						{
							OFFSET -0.00000 -0.00000 0.84630
						}
					}
				}
			}
		}
	}
	JOINT LowerBack
	{
		OFFSET 0 0 0
		CHANNELS 3 Zrotation Yrotation Xrotation
		JOINT Spine
		{
			OFFSET -0.04227 2.04338 -0.00225
			CHANNELS 3 Zrotation Yrotation Xrotation
			JOINT Spine1
			{
				OFFSET -0.02148 2.04482 -0.04273
				CHANNELS 3 Zrotation Yrotation Xrotation
				JOINT Neck
				{
					OFFSET 0 0 0
					CHANNELS 3 Zrotation Yrotation Xrotation
					JOINT Neck1
					{
						OFFSET 0.09180 1.44629 0.19359
						CHANNELS 3 Zrotation Yrotation Xrotation
						JOINT Head
						{
							OFFSET 0.00887 1.40645 0.14750
							CHANNELS 3 Zrotation Yrotation Xrotation
							End Site
							{
								OFFSET -0.00669 1.50671 0.03707
							}
						}
					}
				}
				JOINT LeftShoulder
				{
					OFFSET 0 0 0
					CHANNELS 3 Zrotation Yrotation Xrotation
					JOINT LeftArm
					{
						OFFSET 2.17674 1.86763 -0.06520
						CHANNELS 3 Zrotation Yrotation Xrotation
						JOINT LeftForeArm
						{
							OFFSET 4.65776 -0.00000 0.00000
							CHANNELS 3 Zrotation Yrotation Xrotation
							JOINT LeftHand
							{
								OFFSET 3.55539 -0.00000 0.00000
								CHANNELS 3 Zrotation Yrotation Xrotation
								JOINT LeftFingerBase
								{
									OFFSET 0 0 0
									CHANNELS 3 Zrotation Yrotation Xrotation
									JOINT LeftHandIndex1
									{
										OFFSET 0.70726 -0.00000 0.00000
										CHANNELS 3 Zrotation Yrotation Xrotation
										End Site
										{
											OFFSET 0.57022 -0.00000 0.00000
										}
									}
								}
								JOINT LThumb
								{
									OFFSET 0 0 0
									CHANNELS 3 Zrotation Yrotation Xrotation
									End Site
									{
										OFFSET 0.57892 -0.00000 0.57892
									}
								}
							}
						}
					}
				}
				JOINT RightShoulder
				{
					OFFSET 0 0 0
					CHANNELS 3 Zrotation Yrotation Xrotation
					JOINT RightArm
					{
						OFFSET -2.80694 1.55459 -0.32496
						CHANNELS 3 Zrotation Yrotation Xrotation
						JOINT RightForeArm
						{
							OFFSET -4.71925 -0.00000 -0.00000
							CHANNELS 3 Zrotation Yrotation Xrotation
							JOINT RightHand
							{
								OFFSET -3.56990 -0.00000 0.00000
								CHANNELS 3 Zrotation Yrotation Xrotation
								JOINT RightFingerBase
								{
									OFFSET 0 0 0
									CHANNELS 3 Zrotation Yrotation Xrotation
									JOINT RightHandIndex1
									{
										OFFSET -0.50776 -0.00000 0.00000
										CHANNELS 3 Zrotation Yrotation Xrotation
										End Site
										{
											OFFSET -0.40937 -0.00000 0.00000
										}
									}
								}
								JOINT RThumb
								{
									OFFSET 0 0 0
									CHANNELS 3 Zrotation Yrotation Xrotation
									End Site
									{
										OFFSET -0.41562 -0.00000 0.41562
									}
								}
							}
						}
					}
				}
			}
		}
	}
}
MOTION
Frames: 7
Frame Time: .0083333
16.5927 17.9834 20.5392 0 0 0 0 0 0 -21 0 0 0 0 0 0 0 0 0 0 0 0 0 0 21 0 0 0 0 0 0 0 0 0 0 0 0 0 0 0 0 0 0 0 0 0 0 -16 0 0 21 0 0 11 0 0 0 -8 0 0 0 0 0 0 0 0 0 0 0 0 0 0 0 0 0 0 0 0 8 0 0 0 0 0 0 0 0 0 0 0 0 0 0 0 0 0
16.5927 17.9834 20.5392 174.1040 -1.4858 -154.4310 0.0000 0.0000 0.0000 -26.1353 -16.3157 -18.3906 0.2291 3.0809 8.5040 0.1057 -5.8212 -6.6075 2.1834 -9.2380 -26.5427 0.0000 0.0000 0.0000 15.1655 10.0978 -18.6851 -0.1041 -2.0810 5.7295 -0.8711 2.3370 -17.0017 -3.4457 11.3838 -33.5856 -11.1839 -2.8355 -32.1408 -1.2119 -0.1253 -0.5601 4.5280 -1.1613 16.0419 0.0484 -1.1052 -6.7654 3.1284 -1.6748 3.1393 0.9192 -0.7616 2.1837 0.0000 -0.0000 0.0000 -84.6149 1.7561 19.0702 11.9113 -19.6716 -2.0724 -0.0000 -0.0000 5.3741 22.1428 -11.9478 -4.8154 -7.1250 0.0000 -0.0000 -3.5185 17.1264 2.3308 0.0000 -0.0000 0.0000 90.6281 -6.4049 4.6820 -16.6768 26.4297 -3.9424 0.0000 0.0000 0.2533 -6.5160 -55.0565 5.3488 7.1250 -0.0000 -0.0000 76.3247 -74.1686 -59.8503
16.5942 17.9824 20.5440 174.0380 -1.4487 -154.3140 0.0000 0.0000 0.0000 -26.1985 -16.2461 -18.5982 0.2328 3.1052 8.5719 0.1003 -5.9825 -6.5616 2.1376 -9.1470 -26.2561 0.0000 0.0000 0.0000 15.0718 10.1429 -18.8622 -0.1066 -2.1050 5.7960 -0.8916 2.4775 -17.1799 -3.0753 10.8160 -31.6618 -11.2809 -2.8667 -32.2388 -1.2306 -0.1254 -0.5788 4.5544 -1.1723 16.0589 0.0582 -1.0794 -6.5792 3.1433 -1.6334 2.8299 0.9233 -0.7466 2.0470 0.0000 -0.0000 0.0000 -84.5596 1.6768 19.3042 12.0984 -19.9520 -2.1357 -0.0000 -0.0000 5.1256 21.9959 -12.1912 -4.8757 -7.1250 0.0000 -0.0000 -3.6304 16.8802 2.4248 0.0000 -0.0000 0.0000 90.6573 -6.4225 4.7657 -16.7432 26.5179 -3.9720 0.0000 0.0000 0.2543 -7.9442 -55.5269 6.5626 7.1250 -0.0000 -0.0000 77.6205 -74.7630 -61.7813
16.5956 17.9811 20.5485 173.9600 -1.4095 -154.2000 0.0000 0.0000 0.0000 -26.2846 -16.2277 -18.7590 0.2349 3.1192 8.6108 0.0999 -6.1157 -6.6080 2.2326 -9.3346 -26.8478 0.0000 0.0000 0.0000 14.9765 10.0618 -19.0692 -0.1082 -2.1212 5.8407 -0.9092 2.6852 -17.3147 -2.7243 10.2348 -29.7406 -11.3928 -2.9097 -32.3230 -1.2529 -0.1385 -0.6039 4.5791 -1.1894 16.0635 0.0199 -1.0324 -6.5878 3.2196 -1.5705 2.7352 0.9564 -0.7158 2.0180 -0.0000 0.0000 0.0000 -84.5063 1.6145 19.4517 12.2956 -20.2465 -2.2035 -0.0000 -0.0000 4.9272 21.8196 -12.3236 -4.8841 -7.1250 0.0000 -0.0000 -3.7583 16.7558 2.5207 -0.0000 0.0000 0.0000 90.7038 -6.4057 4.7076 -16.7340 26.5058 -3.9679 0.0000 0.0000 0.3653 -8.0402 -54.7790 6.5826 7.1250 -0.0000 -0.0000 74.8680 -74.6736 -59.0361
16.5984 17.9804 20.5507 174.0000 -1.4462 -154.2100 0.0000 0.0000 0.0000 -26.2122 -16.2479 -18.7558 0.2343 3.1153 8.6000 0.1001 -6.0942 -6.6042 2.2206 -9.3113 -26.7740 0.0000 0.0000 0.0000 15.0396 10.0701 -18.9981 -0.1043 -2.0823 5.7332 -0.8804 2.4768 -17.0673 -3.0097 10.7107 -31.3102 -11.3873 -2.9258 -32.3102 -1.2270 -0.1620 -0.5913 4.5958 -1.1994 16.0776 -0.1431 -0.9607 -6.5958 3.3452 -1.4645 2.5716 1.0281 -0.6643 1.9675 0.0000 -0.0000 0.0000 -84.4966 1.4925 19.5978 12.4469 -20.4714 -2.2561 -0.0000 -0.0000 4.9197 21.9507 -12.1428 -4.8457 -7.1250 0.0000 -0.0000 -3.6600 16.9362 2.4401 0.0000 -0.0000 0.0000 90.7098 -6.3857 4.7769 -16.8330 26.6372 -4.0122 0.0000 0.0000 0.2907 -7.3193 -55.4002 6.0354 7.1250 -0.0000 -0.0000 77.3154 -74.5172 -61.2052
16.6001 17.9814 20.5554 174.0400 -1.5431 -154.2430 0.0000 0.0000 0.0000 -26.1489 -16.2231 -18.7654 0.2356 3.1239 8.6240 0.0954 -6.1663 -6.5388 2.2735 -9.4140 -27.0991 0.0000 0.0000 0.0000 15.1208 10.0826 -18.8992 -0.1010 -2.0494 5.6421 -0.8772 2.4939 -17.0317 -2.8298 10.4143 -30.3289 -11.3541 -2.9409 -32.2236 -1.2163 -0.2039 -0.5959 4.5748 -1.2117 16.0419 -0.1209 -0.9896 -6.6012 3.3216 -1.5047 2.6258 1.0154 -0.6837 1.9864 -0.0000 -0.0000 0.0000 -84.4522 1.4125 19.8647 12.6097 -20.7126 -2.3134 -0.0000 -0.0000 4.8079 22.1794 -12.0566 -4.8672 -7.1250 0.0000 -0.0000 -3.4974 17.0066 2.3259 -0.0000 -0.0000 0.0000 90.7573 -6.3827 4.9117 -16.9199 26.7520 -4.0512 0.0000 -0.0000 -0.1004 -7.0326 -56.3680 5.8644 7.1250 -0.0000 -0.0000 80.8780 -74.5337 -64.7026
16.5977 17.9827 20.5549 174.0750 -1.5211 -154.3110 0.0000 0.0000 0.0000 -26.1411 -16.2077 -18.6713 0.2344 3.1160 8.6020 0.0963 -6.1123 -6.5340 2.2614 -9.3906 -27.0249 0.0000 0.0000 0.0000 15.1527 10.0754 -18.8361 -0.1016 -2.0550 5.6577 -0.8902 2.6665 -17.1291 -2.6753 10.1498 -29.4632 -11.2897 -2.9150 -32.1836 -1.2327 -0.1953 -0.5951 4.5276 -1.2012 16.0254 0.0074 -1.0470 -6.6167 3.2064 -1.5893 2.7815 0.9537 -0.7245 2.0387 -0.0000 0.0000 0.0000 -84.3783 1.4277 20.1646 12.8404 -21.0530 -2.3957 -0.0000 -0.0000 4.4278 22.0004 -12.2227 -4.8891 -7.1250 0.0000 -0.0000 -3.6286 16.8462 2.4262 -0.0000 0.0000 0.0000 90.7998 -6.3988 5.0407 -16.9871 26.8407 -4.0815 0.0000 -0.0000 -0.2768 -6.7847 -57.2521 5.7141 7.1250 -0.0000 -0.0000 84.1235 -74.5043 -67.9011
